<svg version="1.1" x="0px" y="0px" viewBox="0 0 100 125" style="enable-background:new 0 0 100 100;" xml:space="preserve">
  <g>
    <rect x="0" y="0" width="100" height="100" fill="rgba(0, 0, 0, 0)" />
    <path d="M41,79.1c0.1,0,0.2,0,0.3,0c2.4-0.2,4.3-2.3,4.1-4.7l-2.8-40.2c-0.2-2.4-2.3-4.2-4.7-4.1c-2.4,0.2-4.3,2.3-4.1,4.7     L36.6,75C36.8,77.3,38.7,79.1,41,79.1z"/>
    <path d="M58.7,79c0.1,0,0.2,0,0.3,0c2.3,0,4.2-1.8,4.4-4.1l2.8-40.2c0.2-2.4-1.7-4.5-4.1-4.7c-2.4-0.1-4.5,1.7-4.7,4.1l-2.8,40.2     C54.4,76.8,56.2,78.9,58.7,79z"/>
    <path d="M93.1,12.4H67.6l-4.7-6.6c-0.9-1.2-2.3-1.9-3.7-1.9H40.8c-1.5,0-2.9,0.7-3.7,1.9l-4.7,6.6H6.9c-2.4,0-4.4,2-4.4,4.4     c0,2.4,2,4.4,4.4,4.4h3.8l7.6,63.5c0.8,6.5,6.3,11.4,12.9,11.4h37.7c6.6,0,12.1-4.9,12.9-11.4l7.6-63.5h3.8c2.4,0,4.4-2,4.4-4.4     C97.5,14.4,95.5,12.4,93.1,12.4z M73,83.6c-0.2,2.1-2,3.7-4.1,3.7H31.2c-2.1,0-3.9-1.6-4.1-3.7l-7.5-62.4h60.9L73,83.6z"/>
  </g>
</svg>
