<svg xmlns="http://www.w3.org/2000/svg" xmlns:xlink="http://www.w3.org/1999/xlink" version="1.1" x="0px" y="0px" viewBox="0 0 100 100" enable-background="new 0 0 100 100" xml:space="preserve">
  <rect x="0" y="0" width="100" height="100" fill="rgba(0, 0, 0, 0)" />
  <path d="M100,49.818l-12.672-0.01c0.007,10.349-4.182,19.715-10.96,26.493c-6.778,6.777-16.144,10.967-26.493,10.96  S30.088,83.12,23.302,76.334l-6.396-6.507l8.913-8.913l-25.807,0l0.001,25.806l7.998-7.998l6.452,6.451  c9.124,9.124,21.67,14.826,35.355,14.827c13.686,0,26.232-5.702,35.355-14.827C94.297,76.049,100,63.504,100,49.818z M50.188,0  C36.5,0,23.958,5.708,14.833,14.833S0,36.5,0,50.188h12.667c0-10.354,4.187-19.708,10.958-26.479  c6.792-6.792,16.146-10.979,26.5-10.979c10.354,0.021,19.792,4.146,26.583,10.937l6.396,6.5l-8.917,8.917h25.792V13.271l-8,8  l-6.438-6.438C76.417,5.708,63.875,0,50.188,0z"/>
</svg>
